<svg xmlns="http://www.w3.org/2000/svg" xmlns:xlink="http://www.w3.org/1999/xlink" version="1.1" width="256" height="256" viewBox="0 0 256 256" xml:space="preserve">
<desc>Created with Fabric.js 1.7.22</desc>
<defs>
</defs>
<g transform="translate(128 128) scale(1.21 1.21)" style="">
	<g style="stroke: none; stroke-width: 0; stroke-dasharray: none; stroke-linecap: butt; stroke-linejoin: miter; stroke-miterlimit: 10; fill: none; fill-rule: nonzero; opacity: 1;" transform="translate(-104.85 -104.85000000000001) scale(2.33 2.33)" >
	<path d="M 17.72 12.73 L 17.72 12.73 c -0.411 -0.17 -0.443 -0.55 -0.443 -0.662 c 0 -0.112 0.032 -0.492 0.442 -0.662 c 0.207 -0.086 0.368 -0.247 0.454 -0.454 s 0.086 -0.434 0 -0.641 l -0.546 -1.318 c -0.177 -0.427 -0.668 -0.63 -1.095 -0.453 c -0.411 0.17 -0.702 -0.076 -0.781 -0.155 c -0.08 -0.08 -0.325 -0.371 -0.155 -0.781 c 0.086 -0.207 0.086 -0.434 0 -0.641 c -0.086 -0.207 -0.247 -0.368 -0.453 -0.454 l -1.318 -0.546 c -0.427 -0.177 -0.918 0.027 -1.095 0.454 c -0.17 0.41 -0.55 0.442 -0.662 0.442 s -0.492 -0.032 -0.662 -0.442 c -0.086 -0.207 -0.247 -0.368 -0.454 -0.454 c -0.207 -0.086 -0.434 -0.086 -0.642 0 L 8.993 6.508 C 8.786 6.594 8.625 6.755 8.54 6.962 s -0.086 0.435 0 0.641 c 0.17 0.41 -0.076 0.702 -0.155 0.781 C 8.305 8.464 8.014 8.71 7.603 8.54 c -0.207 -0.086 -0.435 -0.086 -0.642 0 C 6.755 8.625 6.594 8.787 6.508 8.993 l -0.546 1.317 c -0.086 0.207 -0.086 0.435 0 0.642 c 0.086 0.207 0.247 0.368 0.454 0.454 c 0.41 0.17 0.442 0.55 0.442 0.662 c 0 0.112 -0.032 0.492 -0.443 0.662 c -0.427 0.177 -0.63 0.668 -0.453 1.095 l 0.546 1.318 c 0.086 0.207 0.247 0.368 0.454 0.454 c 0.207 0.086 0.434 0.086 0.641 0 c 0.41 -0.17 0.702 0.076 0.781 0.155 c 0.079 0.079 0.325 0.371 0.155 0.781 c -0.177 0.427 0.026 0.918 0.454 1.095 l 1.318 0.546 c 0.104 0.043 0.212 0.064 0.321 0.064 s 0.217 -0.021 0.321 -0.064 c 0.207 -0.086 0.368 -0.247 0.454 -0.453 c 0.17 -0.411 0.55 -0.442 0.662 -0.442 l 0 0 c 0.112 0 0.492 0.032 0.662 0.443 c 0.177 0.427 0.668 0.629 1.095 0.453 l 1.318 -0.546 c 0.427 -0.177 0.63 -0.668 0.453 -1.095 c -0.17 -0.41 0.076 -0.702 0.155 -0.781 c 0.08 -0.08 0.37 -0.326 0.781 -0.155 c 0.427 0.176 0.918 -0.027 1.095 -0.454 l 0.546 -1.318 C 18.35 13.398 18.147 12.907 17.72 12.73 z M 12.068 14.382 c -1.276 0 -2.314 -1.038 -2.314 -2.314 s 1.038 -2.314 2.314 -2.314 s 2.314 1.038 2.314 2.314 S 13.344 14.382 12.068 14.382 z" style="stroke: none; stroke-width: 1; stroke-dasharray: none; stroke-linecap: butt; stroke-linejoin: miter; stroke-miterlimit: 10; fill: rgb(255,226,122); fill-rule: nonzero; opacity: 1;" transform=" matrix(3.89 0 0 3.89 -1.9444444444444287 -1.9444444444444287) " stroke-linecap="round" />
	<path d="M 13.507 18.505 c -0.144 0 -0.285 -0.028 -0.42 -0.084 c -0.27 -0.112 -0.481 -0.323 -0.593 -0.593 c -0.106 -0.257 -0.333 -0.285 -0.426 -0.285 c -0.093 0 -0.319 0.028 -0.426 0.285 c -0.232 0.558 -0.874 0.824 -1.432 0.593 l -1.32 -0.547 C 8.331 17.642 8.066 17 8.297 16.441 c 0.106 -0.257 -0.034 -0.437 -0.1 -0.502 c -0.066 -0.066 -0.246 -0.207 -0.503 -0.1 c -0.559 0.23 -1.201 -0.036 -1.433 -0.593 l -0.547 -1.32 c -0.231 -0.559 0.035 -1.201 0.593 -1.432 c 0.257 -0.106 0.285 -0.333 0.285 -0.426 c 0 -0.093 -0.027 -0.319 -0.284 -0.426 c -0.271 -0.112 -0.482 -0.323 -0.593 -0.593 c -0.112 -0.27 -0.112 -0.568 0 -0.839 l 0.547 -1.32 c 0.232 -0.558 0.875 -0.824 1.433 -0.593 c 0.257 0.107 0.437 -0.034 0.502 -0.1 c 0.065 -0.066 0.206 -0.246 0.1 -0.502 c -0.112 -0.271 -0.112 -0.569 0 -0.839 C 8.409 6.585 8.619 6.374 8.89 6.262 l 1.32 -0.547 c 0.558 -0.231 1.201 0.035 1.433 0.593 c 0.106 0.256 0.333 0.284 0.426 0.284 c 0.093 0 0.319 -0.028 0.426 -0.284 c 0.112 -0.271 0.323 -0.482 0.593 -0.594 c 0.271 -0.112 0.569 -0.112 0.839 0 l 1.319 0.547 c 0.271 0.112 0.482 0.323 0.593 0.594 c 0.112 0.27 0.112 0.568 0 0.839 c -0.106 0.257 0.034 0.437 0.1 0.502 c 0.066 0.066 0.246 0.207 0.502 0.1 c 0.27 -0.112 0.568 -0.112 0.839 0 c 0.271 0.112 0.482 0.323 0.593 0.594 l 0.547 1.319 c 0.112 0.271 0.112 0.569 0 0.839 c -0.112 0.271 -0.323 0.481 -0.593 0.593 c -0.257 0.106 -0.284 0.333 -0.284 0.426 c 0 0.093 0.028 0.319 0.285 0.426 c 0.558 0.231 0.824 0.874 0.593 1.432 l -0.547 1.32 c -0.112 0.27 -0.323 0.481 -0.593 0.593 c -0.27 0.112 -0.568 0.112 -0.839 0 c -0.257 -0.107 -0.436 0.035 -0.502 0.1 c -0.066 0.066 -0.207 0.245 -0.1 0.502 c 0.231 0.558 -0.035 1.201 -0.593 1.433 l -1.319 0.547 C 13.791 18.477 13.65 18.505 13.507 18.505 z M 12.068 17.029 c 0.315 0 0.717 0.158 0.901 0.602 c 0.059 0.144 0.171 0.256 0.315 0.315 c 0.144 0.06 0.302 0.06 0.446 0 l 1.319 -0.547 c 0.297 -0.123 0.438 -0.464 0.315 -0.761 c -0.184 -0.445 -0.011 -0.84 0.212 -1.063 c 0.221 -0.223 0.618 -0.395 1.062 -0.211 c 0.144 0.06 0.303 0.06 0.446 0 c 0.144 -0.059 0.256 -0.171 0.316 -0.315 l 0.547 -1.32 c 0.123 -0.296 -0.019 -0.638 -0.315 -0.761 c -0.444 -0.184 -0.602 -0.586 -0.602 -0.901 c 0 -0.315 0.158 -0.717 0.602 -0.901 c 0.144 -0.059 0.256 -0.171 0.315 -0.315 c 0.059 -0.144 0.059 -0.302 0 -0.446 l -0.547 -1.32 c -0.059 -0.144 -0.171 -0.256 -0.315 -0.315 c -0.144 -0.059 -0.302 -0.059 -0.446 0 c -0.444 0.184 -0.84 0.011 -1.063 -0.212 c -0.222 -0.222 -0.395 -0.618 -0.211 -1.062 c 0.059 -0.144 0.059 -0.302 0 -0.446 c -0.059 -0.144 -0.171 -0.256 -0.315 -0.315 L 13.73 6.19 c -0.144 -0.059 -0.302 -0.059 -0.446 0 c -0.144 0.059 -0.256 0.171 -0.315 0.315 c -0.184 0.444 -0.586 0.602 -0.901 0.602 c -0.315 0 -0.717 -0.158 -0.901 -0.601 c -0.123 -0.296 -0.464 -0.438 -0.761 -0.315 l -1.32 0.547 C 8.943 6.797 8.831 6.909 8.772 7.052 c -0.059 0.144 -0.06 0.302 0 0.446 C 8.955 7.941 8.783 8.337 8.56 8.56 C 8.338 8.783 7.942 8.956 7.498 8.772 C 7.201 8.649 6.86 8.79 6.737 9.087 l -0.547 1.32 c -0.059 0.144 -0.059 0.302 0 0.446 c 0.059 0.144 0.171 0.256 0.315 0.315 c 0.444 0.184 0.602 0.586 0.602 0.901 c 0 0.315 -0.158 0.717 -0.602 0.9 l -0.098 -0.237 l 0.098 0.238 c -0.296 0.123 -0.438 0.464 -0.315 0.76 l 0.547 1.32 c 0.123 0.296 0.465 0.439 0.761 0.315 c 0.443 -0.184 0.84 -0.011 1.062 0.212 c 0.223 0.222 0.395 0.618 0.211 1.062 c -0.123 0.296 0.018 0.638 0.315 0.761 l 1.32 0.547 c 0.296 0.122 0.638 -0.019 0.761 -0.315 C 11.351 17.187 11.753 17.029 12.068 17.029 z M 12.068 14.642 c -1.42 0 -2.574 -1.155 -2.574 -2.574 c 0 -1.42 1.155 -2.574 2.574 -2.574 s 2.574 1.155 2.574 2.574 C 14.642 13.488 13.488 14.642 12.068 14.642 z M 12.068 10.008 c -1.136 0 -2.06 0.924 -2.06 2.06 c 0 1.136 0.924 2.06 2.06 2.06 s 2.06 -0.924 2.06 -2.06 C 14.128 10.932 13.204 10.008 12.068 10.008 z" style="stroke: none; stroke-width: 1; stroke-dasharray: none; stroke-linecap: butt; stroke-linejoin: miter; stroke-miterlimit: 10; fill: rgb(0,0,0); fill-rule: nonzero; opacity: 1;" transform=" matrix(3.89 0 0 3.89 -1.9444444444444287 -1.9444444444444287) " stroke-linecap="round" />
	<path d="M 35.985 84.996 c -0.074 0 -0.15 -0.008 -0.226 -0.025 C 17.051 80.663 3.984 64.227 3.984 45 c 0 -0.552 0.448 -1 1 -1 s 1 0.448 1 1 c 0 18.289 12.429 33.924 30.225 38.021 c 0.538 0.124 0.874 0.661 0.75 1.199 C 36.853 84.684 36.44 84.996 35.985 84.996 z" style="stroke: none; stroke-width: 1; stroke-dasharray: none; stroke-linecap: butt; stroke-linejoin: miter; stroke-miterlimit: 10; fill: rgb(0,0,0); fill-rule: nonzero; opacity: 1;" transform=" matrix(1 0 0 1 0 0) " stroke-linecap="round" />
	<path d="M 8.968 49.984 c -0.256 0 -0.512 -0.098 -0.707 -0.293 l -3.277 -3.277 l -3.277 3.277 c -0.391 0.391 -1.023 0.391 -1.414 0 s -0.391 -1.023 0 -1.414 l 3.984 -3.984 c 0.391 -0.391 1.023 -0.391 1.414 0 l 3.984 3.984 c 0.391 0.391 0.391 1.023 0 1.414 C 9.48 49.887 9.224 49.984 8.968 49.984 z" style="stroke: none; stroke-width: 1; stroke-dasharray: none; stroke-linecap: butt; stroke-linejoin: miter; stroke-miterlimit: 10; fill: rgb(0,0,0); fill-rule: nonzero; opacity: 1;" transform=" matrix(1 0 0 1 0 0) " stroke-linecap="round" />
	<path d="M 85.016 46 c -0.553 0 -1 -0.448 -1 -1 c 0 -18.289 -12.429 -33.924 -30.226 -38.022 c -0.538 -0.124 -0.874 -0.661 -0.75 -1.199 c 0.124 -0.538 0.656 -0.872 1.199 -0.75 C 72.948 9.337 86.016 25.774 86.016 45 C 86.016 45.552 85.568 46 85.016 46 z" style="stroke: none; stroke-width: 1; stroke-dasharray: none; stroke-linecap: butt; stroke-linejoin: miter; stroke-miterlimit: 10; fill: rgb(0,0,0); fill-rule: nonzero; opacity: 1;" transform=" matrix(1 0 0 1 0 0) " stroke-linecap="round" />
	<path d="M 85.016 46 c -0.256 0 -0.512 -0.098 -0.707 -0.293 l -3.984 -3.984 c -0.391 -0.391 -0.391 -1.023 0 -1.414 s 1.023 -0.391 1.414 0 l 3.277 3.277 l 3.277 -3.277 c 0.391 -0.391 1.023 -0.391 1.414 0 s 0.391 1.023 0 1.414 l -3.984 3.984 C 85.527 45.902 85.271 46 85.016 46 z" style="stroke: none; stroke-width: 1; stroke-dasharray: none; stroke-linecap: butt; stroke-linejoin: miter; stroke-miterlimit: 10; fill: rgb(0,0,0); fill-rule: nonzero; opacity: 1;" transform=" matrix(1 0 0 1 0 0) " stroke-linecap="round" />
	<path d="M 45 86.016 c -0.552 0 -1 -0.447 -1 -1 s 0.448 -1 1 -1 c 18.29 0 33.924 -12.429 38.022 -30.226 c 0.124 -0.538 0.657 -0.873 1.199 -0.75 c 0.538 0.124 0.874 0.661 0.75 1.199 C 80.663 72.948 64.227 86.016 45 86.016 z" style="stroke: none; stroke-width: 1; stroke-dasharray: none; stroke-linecap: butt; stroke-linejoin: miter; stroke-miterlimit: 10; fill: rgb(0,0,0); fill-rule: nonzero; opacity: 1;" transform=" matrix(1 0 0 1 0 0) " stroke-linecap="round" />
	<path d="M 48.984 90 c -0.256 0 -0.512 -0.098 -0.707 -0.293 l -3.985 -3.984 C 44.105 85.535 44 85.281 44 85.016 s 0.105 -0.52 0.293 -0.707 l 3.985 -3.984 c 0.391 -0.391 1.023 -0.391 1.414 0 s 0.391 1.023 0 1.414 l -3.277 3.277 l 3.277 3.277 c 0.391 0.391 0.391 1.023 0 1.414 C 49.496 89.902 49.24 90 48.984 90 z" style="stroke: none; stroke-width: 1; stroke-dasharray: none; stroke-linecap: butt; stroke-linejoin: miter; stroke-miterlimit: 10; fill: rgb(0,0,0); fill-rule: nonzero; opacity: 1;" transform=" matrix(1 0 0 1 0 0) " stroke-linecap="round" />
	<path d="M 6.004 36.985 c -0.074 0 -0.15 -0.008 -0.226 -0.025 c -0.538 -0.124 -0.874 -0.661 -0.75 -1.199 C 9.336 17.051 25.773 3.984 45 3.984 c 0.552 0 1 0.448 1 1 s -0.448 1 -1 1 c -18.289 0 -33.924 12.429 -38.021 30.225 C 6.872 36.672 6.459 36.985 6.004 36.985 z" style="stroke: none; stroke-width: 1; stroke-dasharray: none; stroke-linecap: butt; stroke-linejoin: miter; stroke-miterlimit: 10; fill: rgb(0,0,0); fill-rule: nonzero; opacity: 1;" transform=" matrix(1 0 0 1 0 0) " stroke-linecap="round" />
	<path d="M 41.016 9.969 c -0.256 0 -0.512 -0.098 -0.707 -0.293 c -0.391 -0.391 -0.391 -1.023 0 -1.414 l 3.277 -3.277 l -3.277 -3.277 c -0.391 -0.391 -0.391 -1.023 0 -1.414 s 1.023 -0.391 1.414 0 l 3.984 3.984 c 0.39 0.391 0.39 1.023 0 1.414 l -3.984 3.984 C 41.527 9.871 41.271 9.969 41.016 9.969 z" style="stroke: none; stroke-width: 1; stroke-dasharray: none; stroke-linecap: butt; stroke-linejoin: miter; stroke-miterlimit: 10; fill: rgb(0,0,0); fill-rule: nonzero; opacity: 1;" transform=" matrix(1 0 0 1 0 0) " stroke-linecap="round" />
</g>
</g>
</svg>