<svg xmlns="http://www.w3.org/2000/svg" xmlns:xlink="http://www.w3.org/1999/xlink" version="1.1" width="256" height="256" viewBox="0 0 256 256" xml:space="preserve">
<desc>Created with Fabric.js 1.7.22</desc>
<defs>
</defs>
<g transform="translate(128 128) scale(1.21 1.21)" style="">
	<g style="stroke: none; stroke-width: 0; stroke-dasharray: none; stroke-linecap: butt; stroke-linejoin: miter; stroke-miterlimit: 10; fill: none; fill-rule: nonzero; opacity: 1;" transform="translate(-104.85 -104.85000000000001) scale(2.33 2.33)" >
	<rect x="34.85" y="69.29" rx="0" ry="0" width="20.3" height="11.43" style="stroke: none; stroke-width: 1; stroke-dasharray: none; stroke-linecap: butt; stroke-linejoin: miter; stroke-miterlimit: 10; fill: rgb(255,226,122); fill-rule: nonzero; opacity: 1;" transform=" matrix(1 0 0 1 0 0) "/>
	<rect x="68.7" y="69.29" rx="0" ry="0" width="20.3" height="11.43" style="stroke: none; stroke-width: 1; stroke-dasharray: none; stroke-linecap: butt; stroke-linejoin: miter; stroke-miterlimit: 10; fill: rgb(255,226,122); fill-rule: nonzero; opacity: 1;" transform=" matrix(1 0 0 1 0 0) "/>
	<rect x="1" y="69.29" rx="0" ry="0" width="20.3" height="11.43" style="stroke: none; stroke-width: 1; stroke-dasharray: none; stroke-linecap: butt; stroke-linejoin: miter; stroke-miterlimit: 10; fill: rgb(255,226,122); fill-rule: nonzero; opacity: 1;" transform=" matrix(1 0 0 1 0 0) "/>
	<path d="M 11.152 70.505 c -0.552 0 -1 -0.447 -1 -1 v -34.75 c 0 -3.526 2.869 -6.395 6.395 -6.395 h 2.43 c 0.552 0 1 0.448 1 1 s -0.448 1 -1 1 h -2.43 c -2.423 0 -4.395 1.971 -4.395 4.395 v 34.75 C 12.152 70.058 11.704 70.505 11.152 70.505 z" style="stroke: none; stroke-width: 1; stroke-dasharray: none; stroke-linecap: butt; stroke-linejoin: miter; stroke-miterlimit: 10; fill: rgb(0,0,0); fill-rule: nonzero; opacity: 1;" transform=" matrix(1 0 0 1 0 0) " stroke-linecap="round" />
	<path d="M 78.848 70.505 c -0.553 0 -1 -0.447 -1 -1 v -34.75 c 0 -2.423 -1.971 -4.395 -4.394 -4.395 h -2.431 c -0.553 0 -1 -0.448 -1 -1 s 0.447 -1 1 -1 h 2.431 c 3.525 0 6.394 2.869 6.394 6.395 v 34.75 C 79.848 70.058 79.4 70.505 78.848 70.505 z" style="stroke: none; stroke-width: 1; stroke-dasharray: none; stroke-linecap: butt; stroke-linejoin: miter; stroke-miterlimit: 10; fill: rgb(0,0,0); fill-rule: nonzero; opacity: 1;" transform=" matrix(1 0 0 1 0 0) " stroke-linecap="round" />
	<path d="M 45 70.505 c -0.552 0 -1 -0.447 -1 -1 V 56.565 c 0 -0.553 0.448 -1 1 -1 s 1 0.447 1 1 v 12.939 C 46 70.058 45.552 70.505 45 70.505 z" style="stroke: none; stroke-width: 1; stroke-dasharray: none; stroke-linecap: butt; stroke-linejoin: miter; stroke-miterlimit: 10; fill: rgb(0,0,0); fill-rule: nonzero; opacity: 1;" transform=" matrix(1 0 0 1 0 0) " stroke-linecap="round" />
	<path d="M 55.152 81.935 H 34.848 c -0.552 0 -1 -0.447 -1 -1 v -11.43 c 0 -0.553 0.448 -1 1 -1 h 20.304 c 0.553 0 1 0.447 1 1 v 11.43 C 56.152 81.487 55.705 81.935 55.152 81.935 z M 35.848 79.935 h 18.304 v -9.43 H 35.848 V 79.935 z" style="stroke: none; stroke-width: 1; stroke-dasharray: none; stroke-linecap: butt; stroke-linejoin: miter; stroke-miterlimit: 10; fill: rgb(0,0,0); fill-rule: nonzero; opacity: 1;" transform=" matrix(1 0 0 1 0 0) " stroke-linecap="round" />
	<path d="M 89 81.935 H 68.696 c -0.553 0 -1 -0.447 -1 -1 v -11.43 c 0 -0.553 0.447 -1 1 -1 H 89 c 0.553 0 1 0.447 1 1 v 11.43 C 90 81.487 89.553 81.935 89 81.935 z M 69.696 79.935 H 88 v -9.43 H 69.696 V 79.935 z" style="stroke: none; stroke-width: 1; stroke-dasharray: none; stroke-linecap: butt; stroke-linejoin: miter; stroke-miterlimit: 10; fill: rgb(0,0,0); fill-rule: nonzero; opacity: 1;" transform=" matrix(1 0 0 1 0 0) " stroke-linecap="round" />
	<path d="M 21.304 81.935 H 1 c -0.552 0 -1 -0.447 -1 -1 v -11.43 c 0 -0.553 0.448 -1 1 -1 h 20.304 c 0.552 0 1 0.447 1 1 v 11.43 C 22.304 81.487 21.856 81.935 21.304 81.935 z M 2 79.935 h 18.304 v -9.43 H 2 V 79.935 z" style="stroke: none; stroke-width: 1; stroke-dasharray: none; stroke-linecap: butt; stroke-linejoin: miter; stroke-miterlimit: 10; fill: rgb(0,0,0); fill-rule: nonzero; opacity: 1;" transform=" matrix(1 0 0 1 0 0) " stroke-linecap="round" />
	<circle cx="45.003" cy="28.933" r="19.873" style="stroke: none; stroke-width: 1; stroke-dasharray: none; stroke-linecap: butt; stroke-linejoin: miter; stroke-miterlimit: 10; fill: rgb(255,226,122); fill-rule: nonzero; opacity: 1;" transform="  matrix(1 0 0 1 0 0) "/>
	<path d="M 45 33.128 L 45 33.128 c -2.87 0 -5.197 -2.327 -5.197 -5.197 v -3.057 c 0 -2.87 2.327 -5.197 5.197 -5.197 h 0 c 2.87 0 5.197 2.327 5.197 5.197 v 3.057 C 50.197 30.801 47.87 33.128 45 33.128 z" style="stroke: none; stroke-width: 1; stroke-dasharray: none; stroke-linecap: butt; stroke-linejoin: miter; stroke-miterlimit: 10; fill: rgb(255,200,159); fill-rule: nonzero; opacity: 1;" transform=" matrix(1 0 0 1 0 0) " stroke-linecap="round" />
	<path d="M 45 33.128 c -4.517 0 -8.178 3.662 -8.178 8.178 v 5.742 c 2.495 1.129 5.262 1.762 8.178 1.762 s 5.683 -0.633 8.178 -1.762 v -5.742 C 53.178 36.79 49.517 33.128 45 33.128 z" style="stroke: none; stroke-width: 1; stroke-dasharray: none; stroke-linecap: butt; stroke-linejoin: miter; stroke-miterlimit: 10; fill: rgb(74,128,170); fill-rule: nonzero; opacity: 1;" transform=" matrix(1 0 0 1 0 0) " stroke-linecap="round" />
	<path d="M 45 49.811 c -11.509 0 -20.873 -9.363 -20.873 -20.872 c 0 -11.509 9.363 -20.873 20.873 -20.873 c 11.509 0 20.872 9.363 20.872 20.873 C 65.872 40.447 56.509 49.811 45 49.811 z M 45 10.066 c -10.406 0 -18.873 8.466 -18.873 18.873 S 34.594 47.811 45 47.811 s 18.872 -8.466 18.872 -18.872 S 55.406 10.066 45 10.066 z" style="stroke: none; stroke-width: 1; stroke-dasharray: none; stroke-linecap: butt; stroke-linejoin: miter; stroke-miterlimit: 10; fill: rgb(0,0,0); fill-rule: nonzero; opacity: 1;" transform=" matrix(1 0 0 1 0 0) " stroke-linecap="round" />
	<path d="M 45 34.128 c -3.417 0 -6.197 -2.78 -6.197 -6.197 v -3.058 c 0 -3.417 2.78 -6.197 6.197 -6.197 s 6.197 2.78 6.197 6.197 v 3.058 C 51.197 31.348 48.417 34.128 45 34.128 z M 45 20.676 c -2.314 0 -4.197 1.883 -4.197 4.197 v 3.058 c 0 2.314 1.883 4.197 4.197 4.197 s 4.197 -1.883 4.197 -4.197 v -3.058 C 49.197 22.559 47.314 20.676 45 20.676 z" style="stroke: none; stroke-width: 1; stroke-dasharray: none; stroke-linecap: butt; stroke-linejoin: miter; stroke-miterlimit: 10; fill: rgb(0,0,0); fill-rule: nonzero; opacity: 1;" transform=" matrix(1 0 0 1 0 0) " stroke-linecap="round" />
	<path d="M 45 49.811 c -2.986 0 -5.876 -0.623 -8.59 -1.851 c -0.358 -0.162 -0.588 -0.519 -0.588 -0.911 v -5.742 c 0 -5.061 4.117 -9.178 9.178 -9.178 c 5.062 0 9.179 4.117 9.179 9.178 v 5.742 c 0 0.393 -0.229 0.749 -0.588 0.911 C 50.877 49.188 47.986 49.811 45 49.811 z M 37.822 46.392 c 4.563 1.885 9.794 1.885 14.357 0 v -5.085 c 0 -3.958 -3.221 -7.178 -7.179 -7.178 s -7.178 3.22 -7.178 7.178 V 46.392 z M 53.179 47.049 h 0.01 H 53.179 z" style="stroke: none; stroke-width: 1; stroke-dasharray: none; stroke-linecap: butt; stroke-linejoin: miter; stroke-miterlimit: 10; fill: rgb(0,0,0); fill-rule: nonzero; opacity: 1;" transform=" matrix(1 0 0 1 0 0) " stroke-linecap="round" />
</g>
</g>
</svg>